# AST/ASF file generated using VICON BodyLanguage
# -----------------------------------------------
:version 1.10
:name VICON
:units
  mass 1.0
  length 0.45
  angle deg
:documentation
   .ast/.asf automatically generated from VICON data using
   VICON BodyBuilder and BodyLanguage model FoxedUp or BRILLIANT.MOD
:root
   order TX TY TZ RX RY RZ
   axis XYZ
   position 0 0 0  
   orientation 0 0 0 
:bonedata
  begin
     id 1 
     name lhipjoint
     direction 0.653368 -0.678499 0.335782 
     length 2.51848 
     axis 0 0 0  XYZ
  end
  begin
     id 2 
     name lfemur
     direction 0.34202 -0.939693 0  
     length 6.57749  
     axis 0 0 20  XYZ
    dof rx ry rz
    limits (-160.0 20.0)
           (-70.0 70.0)
           (-60.0 70.0)
  end
  begin
     id 3 
     name ltibia
     direction 0.34202 -0.939693 0   
     length 7.94618   
     axis 0 0 20   XYZ
    dof rx
    limits (-10.0 170.0)
  end
  begin
     id 4 
     name lfoot
     direction 0.0811271 -0.222895 0.971461   
     length 2.31339   
     axis -90 7.62852e-016 20   XYZ
    dof rx rz
    limits (-45.0 90.0)
           (-70.0 20.0)
  end
  begin
     id 5 
     name ltoes
     direction 1.53568e-011 -4.21885e-011 1   
     length 1.15935   
     axis -90 7.62852e-016 20   XYZ
    dof rx
    limits (-90.0 20.0)
  end
  begin
     id 6 
     name rhipjoint
     direction -0.640058 -0.688614 0.340788   
     length 2.48149  
     axis 0 0 0  XYZ 
  end
  begin
     id 7 
     name rfemur
     direction -0.34202 -0.939693 0   
     length 6.57875   
     axis 0 0 -20   XYZ
    dof rx ry rz
    limits (-160.0 20.0)
           (-70.0 70.0)
           (-70.0 60.0)
  end
  begin
     id 8 
     name rtibia
     direction -0.34202 -0.939693 0   
     length 7.977   
     axis 0 0 -20   XYZ
    dof rx
    limits (-10.0 170.0)
 end
 begin
     id 9 
     name rfoot
     direction -0.0979793 -0.269196 0.958089   
     length 2.19857  
     axis -90 -7.62852e-016 -20   XYZ
    dof rx rz
    limits (-45.0 90.0)
           (-20.0 70.0)
  end
  begin
     id 10 
     name rtoes
     direction -1.53556e-011 -4.21868e-011 1   
     length 1.09838   
     axis -90 -7.62852e-016 -20   XYZ
    dof rx
    limits (-90.0 20.0)
  end
  begin
     id 11 
     name lowerback
     direction 0.0149039 0.998517 -0.0523597   
     length 2.10809   
     axis 0 0 0   XYZ
    dof rx ry rz
    limits (-20.0 45.0)
           (-30.0 30.0)
           (-30.0 30.0)
  end
  begin
     id 12 
     name upperback
     direction -0.00882659 0.999418 -0.0329624   
     length 2.1102   
     axis 0 0 0   XYZ
    dof rx ry rz
    limits (-20.0 45.0)
           (-30.0 30.0)
           (-30.0 30.0)
  end
  begin
     id 13 
     name thorax
     direction -0.0165585 0.999826 -0.0085833   
     length 2.11039   
     axis 0 0 0   XYZ
    dof rx ry rz
    limits (-20.0 45.0)
           (-30.0 30.0)
           (-30.0 30.0)
  end
  begin
     id 14 
     name lowerneck
     direction -0.0130877 0.999911 0.00260353   
     length 1.73253   
     axis 0 0 0   XYZ
    dof rx ry rz
    limits (-20.0 45.0)
           (-30.0 30.0)
           (-30.0 30.0)
  end
  begin
     id 15 
     name upperneck
     direction -0.0348454 0.928205 -0.370435   
     length 1.66692   
     axis 0 0 0   XYZ
    dof rx ry rz
    limits (-20.0 45.0)
           (-30.0 30.0)
           (-30.0 30.0)
  end
  begin
     id 16
     name head
     direction -0.00807754 0.992494 -0.122026  
     length 1.72765  
     axis 0 0 0   XYZ
    dof rx ry rz
    limits (-20.0 45.0)
           (-30.0 30.0)
           (-30.0 30.0)
  end
  begin
     id 17 
     name lclavicle
     direction 0.987582 0.144023 0.0627671  
     length 3.49235  
     axis 0 0 0   XYZ
    dof ry rz
    limits (-20.0 10.0)
           (0.0 20.0)
  end
  begin
     id 18 
     name lhumerus
     direction 1 -4.48958e-011 -1.45183e-018   
     length 5.41917   
     axis 180 -30 -90   XYZ
    dof rx ry rz
    limits (-60.0 90.0)
           (-90.0 90.0)
           (-90.0 90.0)
  end
  begin
     id 19
     name lradius
     direction 1 -4.48999e-011 5.75106e-027   
     length 2.44373   
     axis 180 -30 -90   XYZ
    dof rx
    limits (-10.0 170.0)
  end
  begin
     id 20
     name lwrist
     direction 1 -4.48987e-011 1.53461e-026   
     length 1.22186   
     axis -1.09697e-014 90 90   XYZ
    dof ry
    limits (-180.0 0.0)
 end
  begin
     id 21 
     name lhand
     direction 1 -4.48881e-011 3.06923e-026   
     length 0.727502   
     axis -1.95843e-014 90 90   XYZ
    dof rx rz
    limits (-90.0 90.0)
           (-45.0 45.0)
  end
  begin
     id 22 
     name lfingers
     direction 1 -4.48907e-011 6.13845e-026   
     length 0.586531   
     axis -3.91686e-014 90 90   XYZ
    dof rx
    limits (0.0 90.0)
  end
  begin
     id 23
     name lthumb
     direction 0.707107 -6.3487e-011 0.707107   
     length 0.842145   
     axis -90 45 2.85299e-015   XYZ
    dof rx rz
    limits (-45.0 45.0)
           (-45.0 45.0)
  end
  begin
     id 24 
     name rclavicle
     direction -0.980998 0.169556 0.0943023   
     length 3.29272  
     axis 0 0 0   XYZ 
    dof ry rz
    limits (-10.0 20.0)
           (-20.0 0.0)
  end
  begin
     id 25 
     name rhumerus
     direction -1 -1.83355e-005 2.45537e-005  
     length 5.58976   
     axis 180 30 90   XYZ
    dof rx ry rz
    limits (-90.0 60.0)
           (-90.0 90.0)
           (-90.0 90.0)
  end
  begin
     id 26 
     name rradius
     direction -1 -4.48967e-011 5.97228e-027   
     length 2.4806   
     axis 180 30 90   XYZ
    dof rx
    limits (-10.0 170.0)
  end
  begin
     id 27 
     name rwrist
     direction -1 -4.48963e-011 1.53461e-026   
     length 1.2403   
     axis -1.09697e-014 -90 -90   XYZ
    dof ry
    limits (-180.0 0.0)
  end
  begin
     id 28
     name rhand
     direction -1 -4.48881e-011 3.06923e-026   
     length 0.816009   
     axis -1.95843e-014 -90 -90   XYZ
    dof rx rz
    limits (-90.0 90.0)
           (-45.0 45.0)
  end
  begin
     id 29
     name rfingers
     direction -1 -4.49018e-011 6.13845e-026   
     length 0.657887   
     axis -3.91686e-014 -90 -90   XYZ
    dof rx
    limits (0.0 90.0)
  end
  begin
     id 30
     name rthumb
     direction -0.707107 -6.34872e-011 0.707107   
     length 0.944599   
     axis -90 -45 -2.85299e-015   XYZ
    dof rx rz
    limits (-45.0 45.0)
           (-45.0 45.0)
  end
:hierarchy
  begin
    root lhipjoint rhipjoint lowerback
    lhipjoint lfemur
    lfemur ltibia
    ltibia lfoot
    lfoot ltoes
    rhipjoint rfemur
    rfemur rtibia
    rtibia rfoot
    rfoot rtoes
    lowerback upperback
    upperback thorax
    thorax lowerneck lclavicle rclavicle
    lowerneck upperneck
    upperneck head
    lclavicle lhumerus
    lhumerus lradius
    lradius lwrist
    lwrist lhand lthumb
    lhand lfingers
    rclavicle rhumerus
    rhumerus rradius
    rradius rwrist
    rwrist rhand rthumb
    rhand rfingers
  end

#!OML:ASF F:\VICON\USERDATA\INSTALL\rory3\rory3.ASF
:FULLY-SPECIFIED
:DEGREES
54
root -0.273958 16.1904 -14.9592 -152.683 -0.251375 178.375
lowerback -21.3915 1.06369 -2.79109
upperback -8.89095 0.157788 -1.13417
thorax 2.2444 -0.678755 0.381434
lowerneck -9.22096 1.95171 -1.16335
upperneck 37.5639 -2.88237 2.77952
head 14.533 -2.74415 0.492272
rclavicle 1.07918e-014 -5.1684e-015
rhumerus -42.4567 -8.75723 -73.5186
rradius 12.2222
rwrist 6.22053
rhand 15.9389 9.27116
rfingers 7.12502
rthumb 40.7347 -15.729
lclavicle 1.07918e-014 -5.1684e-015
lhumerus -48.024 18.1583 63.1481
lradius 24.1339
lwrist -1.2219
lhand 26.7714 22.5129
lfingers 7.12502
lthumb 50.7823 43.3149
rfemur -31.2443 -17.0289 30.0538
rtibia 59.7852
rfoot 27.433 -28.364
rtoes 29.9326
lfemur -47.4508 3.37096 -36.9229
ltibia 42.7932
lfoot -35.9127 23.0959
ltoes 6.97239
55
root -0.252939 16.1945 -14.9216 -153.029 0.704346 177.435
lowerback -20.4607 -1.23992 -3.40181
upperback -9.03475 0.901458 -1.09308
thorax 1.6625 1.32051 0.983413
lowerneck -9.0956 1.93916 -1.18845
upperneck 37.5401 -2.93443 2.83894
head 14.496 -2.76991 0.513845
rclavicle 1.57164e-015 -1.35174e-014
rhumerus -42.5204 -8.60842 -73.6393
rradius 12.2571
rwrist 6.0599
rhand 15.951 9.12259
rfingers 7.12502
rthumb 40.746 -15.874
lclavicle 1.57164e-015 -1.35174e-014
lhumerus -48.0605 18.268 62.966
lradius 23.9954
lwrist -1.47434
lhand 26.8704 22.3323
lfingers 7.12502
lthumb 50.8726 43.0845
rfemur -31.4122 -16.1072 28.8221
rtibia 60.1574
rfoot 28.5698 -27.613
rtoes 26.7967
lfemur -47.0792 3.52162 -37.9987
ltibia 42.4941
lfoot -36.0156 23.4218
ltoes 6.9979
56
root -0.275611 16.1957 -14.9652 -152.763 -0.17238 178.406
lowerback -21.2554 1.10074 -2.7699
upperback -8.98983 0.176224 -1.13795
thorax 2.06871 -0.6758 0.371473
lowerneck -9.01097 1.96431 -1.11981
upperneck 37.5972 -2.90983 2.73392
head 14.5006 -2.77543 0.459785
rclavicle -9.78704e-015 2.26615e-014
rhumerus -42.6148 -8.39031 -73.7053
rradius 12.2362
rwrist 5.95366
rhand 15.984 9.19431
rfingers 7.12502
rthumb 40.7771 -15.7925
lclavicle -9.78704e-015 2.26615e-014
lhumerus -48.2424 18.1541 63.0072
lradius 24.1478
lwrist -1.33728
lhand 26.8043 22.4643
lfingers 7.12502
lthumb 50.8123 43.2498
rfemur -31.1991 -16.9427 29.9773
rtibia 59.8868
rfoot 28.7846 -26.5369
rtoes 26.171
lfemur -47.2372 3.66033 -37.0137
ltibia 42.568
lfoot -35.6619 23.1303
ltoes 6.46514
57
root -0.251855 16.1954 -14.9126 -153.196 1.03808 176.902
lowerback -19.9544 -1.33397 -4.05677
upperback -9.19942 0.890469 -1.21176
thorax 1.22375 1.34852 1.21204
lowerneck -9.01906 2.00812 -1.12931
upperneck 37.6911 -2.89748 2.79171
head 14.5484 -2.77414 0.483797
rclavicle -1.67973e-014 2.54444e-014
rhumerus -42.7406 -8.22489 -73.7816
rradius 12.3064
rwrist 5.80354
rhand 16.2715 8.54522
rfingers 7.12502
rthumb 41.0471 -16.3562
lclavicle -1.67973e-014 2.54444e-014
lhumerus -48.3744 18.1022 62.9837
lradius 24.1746
lwrist -1.31462
lhand 26.7836 22.3889
lfingers 7.12502
lthumb 50.7934 43.1848
rfemur -31.4431 -16.0077 28.0822
rtibia 60.4473
rfoot 28.7543 -26.9939
rtoes 26.0368
lfemur -46.7445 3.76635 -38.7206
ltibia 42.1456
lfoot -35.6301 23.5305
ltoes 6.57803
58
root -0.253696 16.1951 -14.9162 -153.062 0.828521 177.169
lowerback -20.1027 -1.34974 -3.72578
upperback -9.26204 0.834706 -1.11453
thorax 1.23651 1.32364 1.11818
lowerneck -8.89034 2.01758 -1.1721
upperneck 37.67 -2.91014 2.84256
head 14.5104 -2.78752 0.510657
rclavicle 1.21414e-014 2.98177e-015
rhumerus -42.826 -8.17405 -73.757
rradius 12.304
rwrist 5.78685
rhand 16.0758 9.1141
rfingers 7.12502
rthumb 40.8633 -15.8456
lclavicle 1.21414e-014 2.98177e-015
lhumerus -48.5012 18.1628 62.8686
lradius 24.1181
lwrist -1.42209
lhand 26.6572 22.0525
lfingers 7.12502
lthumb 50.6781 42.9117
rfemur -31.5042 -15.9764 28.4109
rtibia 60.4673
rfoot 27.4393 -28.2706
rtoes 29.3941
lfemur -46.8556 3.70551 -38.3883
ltibia 42.0623
lfoot -35.6 23.3919
ltoes 6.91311
59
root -0.251726 16.2024 -14.9159 -153.025 0.991896 176.928
lowerback -20.1287 -1.39288 -4.05816
upperback -9.29243 0.853831 -1.15916
thorax 1.21303 1.34847 1.26235
lowerneck -8.66547 2.0144 -1.17006
upperneck 37.5521 -2.89662 2.81074
head 14.4014 -2.78875 0.502714
rclavicle 2.08072e-014 -3.20043e-014
rhumerus -42.8767 -8.47948 -73.4508
rradius 12.1603
rwrist 6.1408
rhand 16.1419 9.3907
rfingers 7.12502
rthumb 40.9255 -15.5493
lclavicle 2.08072e-014 -3.20043e-014
lhumerus -48.5293 18.4087 62.6751
lradius 23.9547
lwrist -1.76017
lhand 26.6515 21.9226
lfingers 7.12502
lthumb 50.673 42.7847
rfemur -31.8618 -15.9382 28.1657
rtibia 60.7403
rfoot 29.3401 -26.3044
rtoes 24.4414
lfemur -46.7353 3.5148 -38.5573
ltibia 41.7939
lfoot -35.8223 23.2622
ltoes 7.73619
